<svg id="Flat" height="512" viewBox="0 0 512 512" width="512" xmlns="http://www.w3.org/2000/svg"><path d="m264 216h-16v-63.979a8 8 0 0 1 8-8h.008a32.006 32.006 0 1 0 -29.9-20.589l-14.947 5.71a47.949 47.949 0 1 1 52.839 30.207z" fill="#cf8a29"/><path d="m312 264.86v-16.828a56 56 0 0 0 -56-56 56 56 0 0 0 -56 56v16.828l-176 103.172v40l199.64-110.146a66.987 66.987 0 0 1 64.72 0l199.64 110.146v-40z" fill="#ebae48"/><path d="m488 400.032h-464v16h40v7.989a24.027 24.027 0 0 0 24 24h32v-16h-32a8.009 8.009 0 0 1 -8-8v-7.989h352v7.989a8.009 8.009 0 0 1 -8 8h-32v16h32a24.027 24.027 0 0 0 24-24v-7.989h40z" fill="#b3b2b3"/></svg>